{"title":"Ghost.1990.SWESUB.DVDRip.XviD.-Zen_Bud","uid":5693714,"size":1466802176,"categoryP":"video","categoryS":"movies","magnet":"?xt=urn:btih:8bef3933062c0af53e56cf2c386893744ac89f18&amp;dn=Ghost.1990.SWESUB.DVDRip.XviD.-Zen_Bud&amp;tr=udp%3A%2F%2Ftracker.openbittorrent.com%3A80&amp;tr=udp%3A%2F%2Fopen.demonii.com%3A1337&amp;tr=udp%3A%2F%2Ftracker.coppersurfer.tk%3A6969&amp;tr=udp%3A%2F%2Fexodus.desync.com%3A6969","seeders":1,"leechers":0,"uploader":"plumpdoll","files":1,"time":1279183296,"description":"General\nComplete name                    : Ghost.1990.avi\nFormat                           : AVI\nFile size                        : 1.37 GiB\nDuration                         : 2h 1mn\nOverall bit rate                 : 1 609 Kbps\n\n\nVideo\n\nFormat                           : MPEG-4 Visual\nCodec ID/Hint                    : XviD\nDuration                         : 2h 1mn\nBit rate                         : 1 472 Kbps\nWidth                            : 720 pixels\nHeight                           : 412 pixels\nDisplay aspect ratio             : 16:9\nStream size                      : 1.25 GiB (91%)\nWriting library                  : XviD 1.2.1 (UTC 2008-12-04)\n\nAudio\n\nFormat                           : MPEG Audio\nCodec ID/Hint                    : MP3\nDuration                         : 2h 1mn\nBit rate                         : 128 Kbps\nChannel(s)                       : 2 channels\nSampling rate                    : 48.0 KHz\nStream size                      : 111 MiB (8%)\nWriting library                  : LAME3.97b\n\n &lt;a href=&quot;\nhttp://www.imdb.com/title/tt0099653/&quot; rel=&quot;nofollow&quot; target=&quot;_NEW&quot;&gt;\nhttp://www.imdb.com/title/tt0099653/&lt;/a&gt;","torrent":{"xt":"urn:btih:8bef3933062c0af53e56cf2c386893744ac89f18","amp;dn":"Ghost.1990.SWESUB.DVDRip.XviD.-Zen_Bud","amp;tr":["udp%3A%2F%2Ftracker.openbittorrent.com%3A80","udp%3A%2F%2Fopen.demonii.com%3A1337","udp%3A%2F%2Ftracker.coppersurfer.tk%3A6969","udp%3A%2F%2Fexodus.desync.com%3A6969"],"infoHash":"8bef3933062c0af53e56cf2c386893744ac89f18","infoHashBuffer":{"type":"Buffer","data":[139,239,57,51,6,44,10,245,62,86,207,44,56,104,147,116,74,200,159,24]},"announce":[],"urlList":[]}}